/* XPM */
static char *_91499309b944390f48b99ff552321f5kwkUWdUKUT7mumq9[] = {
/* columns rows colors chars-per-pixel */
"64 64 198 2 ",
"   c None",
".  c #0F0E07",
"X  c #100F08",
"o  c #100E07",
"O  c #101007",
"+  c #101108",
"@  c #151C0D",
"#  c #181F0F",
"$  c #16220E",
"%  c #18200F",
"&  c #15290D",
"*  c #182210",
"=  c #182C11",
"-  c #173711",
";  c #193411",
":  c #173911",
">  c #1A3B13",
",  c #044E05",
"<  c #075209",
"1  c #09540A",
"2  c #0A5B0A",
"3  c #095705",
"4  c #1B4414",
"5  c #1C4E14",
"6  c #174111",
"7  c #0D5513",
"8  c #0E5F10",
"9  c #1C5314",
"0  c #115D13",
"q  c #1C5A14",
"w  c #1F5D18",
"e  c #254F1F",
"r  c #21561B",
"t  c #235B1D",
"y  c #0C640A",
"u  c #0E6C09",
"i  c #10660D",
"p  c #126B08",
"a  c #116907",
"s  c #0F720B",
"d  c #0E7B09",
"f  c #12730B",
"g  c #117C0A",
"h  c #0F6614",
"j  c #116414",
"k  c #1D6316",
"l  c #136B12",
"z  c #186C19",
"x  c #157D11",
"c  c #177518",
"v  c #1B741E",
"b  c #1C7D19",
"n  c #197F15",
"m  c #21641C",
"M  c #216C1B",
"N  c #24741D",
"B  c #227E1E",
"V  c #2C4D29",
"C  c #254220",
"Z  c #2F5E2A",
"A  c #2C5329",
"S  c #355730",
"D  c #2C6A27",
"F  c #267520",
"G  c #237D22",
"H  c #2A7726",
"J  c #33772F",
"K  c #396D34",
"L  c #367534",
"P  c #10840A",
"I  c #138B0D",
"U  c #15930F",
"Y  c #169B0F",
"T  c #189C0F",
"R  c #158212",
"E  c #168F11",
"W  c #1C831C",
"Q  c #198915",
"!  c #169410",
"~  c #189414",
"^  c #169B10",
"/  c #1A9A13",
"(  c #1C951A",
")  c #1E9A19",
"_  c #21831D",
"`  c #218D1F",
"'  c #219D1D",
"]  c #17A40F",
"[  c #17A510",
"{  c #1AA513",
"}  c #1EA817",
"|  c #1EA419",
" . c #21A51C",
".. c #22A91D",
"X. c #1F8920",
"o. c #1F8420",
"O. c #1E9522",
"+. c #248222",
"@. c #238B23",
"#. c #2C832A",
"$. c #2A8D2A",
"%. c #278F2A",
"&. c #318B2E",
"*. c #229225",
"=. c #259923",
"-. c #2D952B",
";. c #2D992C",
":. c #319B2E",
">. c #32952F",
",. c #3C8838",
"<. c #2E9C30",
"1. c #379334",
"2. c #3A9337",
"3. c #339E33",
"4. c #3D9C3C",
"5. c #3C9539",
"6. c #25A522",
"7. c #26A922",
"8. c #2CA929",
"9. c #30AE2F",
"0. c #2EB02A",
"q. c #31B02C",
"w. c #2CA234",
"e. c #33A433",
"r. c #3AA637",
"t. c #35AC33",
"y. c #3BA43A",
"u. c #3BAC3A",
"i. c #38AD36",
"p. c #34B133",
"a. c #38B337",
"s. c #3BB43A",
"d. c #40A13E",
"f. c #40BB3F",
"g. c #3FA840",
"h. c #439E42",
"j. c #429442",
"k. c #43A442",
"l. c #48A148",
"z. c #48A84A",
"x. c #43B443",
"c. c #45BA44",
"v. c #45BD45",
"b. c #43BB42",
"n. c #48BE47",
"m. c #48BD45",
"M. c #4BB54D",
"N. c #47BC49",
"B. c #49BE49",
"V. c #4BBE4C",
"C. c #4EA852",
"Z. c #56AA57",
"A. c #4EBA52",
"S. c #4FB253",
"D. c #55B658",
"F. c #67BD69",
"G. c #4AC14A",
"H. c #4CC24D",
"J. c #4DC24D",
"K. c #4EC44F",
"L. c #4BC14B",
"P. c #4FC550",
"I. c #4FC651",
"U. c #50C551",
"Y. c #50C651",
"T. c #51C652",
"R. c #52C753",
"E. c #53C754",
"W. c #52C355",
"Q. c #52C853",
"!. c #55C857",
"~. c #55C659",
"^. c #5AC55C",
"/. c #56C859",
"(. c #59C85D",
"). c #5DC664",
"_. c #5DCB63",
"`. c #60CC67",
"'. c #63CE6A",
"]. c #66C46B",
"[. c #69D16F",
"{. c #67D06E",
"}. c #6DC971",
"|. c #6DD373",
" X c #73D476",
".X c #75D47A",
"XX c #7BD57C",
"oX c #7CD97D",
"OX c #76D87A",
"+X c #7ED383",
"@X c #82DD84",
"#X c #85DE8B",
"$X c #88DD8E",
"%X c #87E088",
"&X c #8DE393",
"*X c #93E79B",
"=X c #95E89D",
"-X c #90E597",
/* pixels */
"                                                                                                                                ",
"                                                                                                                                ",
"                                                                                                                                ",
"                                                                                                                                ",
"                                                                                                                                ",
"                                                    w.;.-.;.:.:.:.;.;.-.;.w.                                                    ",
"                                          _ $.=.=.e.a.b.G.J.J.J.J.J.J.G.v.s.e.=.=.%.B                                           ",
"                                      @.3.u.x.v.B.J.I.U.Q.U.I.I.I.I.U.Q.Q.U.J.B.v.s.r.3.@.                                      ",
"                                  o.<.i.v.U.U.U.I.n.x.k.h.5.2.2.2.2.5.h.k.x.n.I.U.U.I.v.i.<.@.                                  ",
"                              W e.x.B.I.U.K.c.u.1.F q > = = = * * * = ; 4 k G 1.u.c.K.U.I.n.s.3.W                               ",
"                          v @.u.~./.U.J.x.:.N 5 ; % % * * = = = = = = = = - > 4 q B :.c.U.U.U.B.t.` v                           ",
"                        c $.x.E./.U.J.r.M 4 ; # # * * * = - : : : : : : : : : - - > 9 F r.J.U.U.G.i.X.c                         ",
"                        ;.A._.E.U.B.3.w & # * * * * * * ; : : : : : : : : : : : : - - : w 3.v.J.U.J.s.*.                        ",
"                      $.x.(.!.U.B.>.9 = # # * * * * * * = : : : : : : : : : : : : : : = $ 5 -.b.J.U.J.i.@.                      ",
"                      <.B.E.U.G.3.5 * * * * * * * * * * * = : : : : : : : : : : : : : - = $ 5 ;.b.G.U.B.<.                      ",
"                    @.i.J.J.G.i.k $ * * * # @ # * * * * * * = ; - : : : : : : : : : : : : ; : z t.v.G.G.i.@.                    ",
"                    <.c.G.v.b.$.- # * * * @ + + @ # * * # * * * = - : : : : : : : : : : : : : : $.f.v.v.b.<.                    ",
"                  b e.J.K.I.x.M % # # # @ + + + + @ @ + + # % * * * = - : : : : : : : : : : - = M s.G.I.L.e.b                   ",
"                  B i.I./._.C.4 @ @ + + + + + + + + + + + + + # * * * = - : : : : : : : : : : - 5 d.!._._.x.+.                  ",
"                  G u.E._.'.C.> + @ + + + + + + + + X X + + + + # * * * - : : : : : : : : : : : 4 h._.'.'.M.+.                  ",
"                  G u.(.'.{.Z.> + + + + + + + + + + + + + + + + @ % * * ; : : : : : : : : : : : 4 l.'.'.'.D.#.                  ",
"                  v r._.{.OXF.t + + + + + + + + + + + + + + + + + @ @ # = - : : : : : : : : : : m S.'.'.'.M.G                   ",
"                  z e._.|.@X.Xj.; + + + O + + + + + + + + + + + + + + # * = : : : : : : : : : 4 &.^.'.'._.u.z                   ",
"                  j ` V.oX&X&X}.D @ + + O + + + + + + + + + + + + + + @ % = : : : : : : : : 6 N M.'.'.'.(.e.l                   ",
"                  2 f r.OX*X=X#XS.r @ + + + + + + + + + + + + + + + + + # * - : : : : : : : m y._.'.'._.c.W y                   ",
"                  1 2 _ ^.&X=X*X#XC.e @ + + + + + + + + + + + + + + + + % * = ; : : : : : r h._.'.'.'.~.;.y <                   ",
"                  < 1 f e. X*X=X=X#XZ.Z % + X + + + + + + + + + + + + + # * * * ; : : > t 4.).'.'.'.(.s.n 2 ,                   ",
"                    2 p Q x.OX*X=X=X&XF.L - @ + X + + + + + + + + + + + @ * * * * ; 5 H k._.'.'.'.(.x.=.f 1                     ",
"                    2 p P ' N..X&X=X=X&X+XZ.J > @ + O o X + + + + + X X + # * ; 5 H 4.A.`.'.'.'.~.s.' I p 3                     ",
"                      y P ! ..x.|.&X=X=X=X&X XC.,.Z C ; & @ O . . . + @ & 4 t #.g.W._.'.'.'.`.E.s.' I g y                       ",
"                      y R U [ ..s._.@X*X=X=X*X&X$X+X].S.,.K S V V V A D &.y.A.).`.'.'.'.'.`.U.t.) ! P f                         ",
"                        g I Y [ } 9.U. X#X&X-X=X=X=X&X@XoXXXXX}.].).).)._.'.'.'.'.'._.(.W.x.8.) ! U P u                         ",
"                          R ! ] ] ..s.G.W.^.[.@X&X*X&X%X@X@X@XoX{.'.'.'.'.'.'._.(.E.N.t.6.) ! ! ! I g                           ",
"                            Q / ] ..a.s.0...0.b.W.'. XoXoX|.{.{.'.'.'.`._._.E.B.t.6.' / ! ! ! ! E x                             ",
"                              x U  .9.t.7.] ] { ..7.q.s.n.v.b.v.G.J.G.v.b.p.7.../ ! ! ! ! ! ! I x                               ",
"                              8 s I ' 6.[ ] ] ] ] ] ] [ } } } } ......} } [ ] Y ! ! ! ! ! ! I f 2                               ",
"                              7 2 u g I Y ] ] ] ] ] ] ] ] ] ] ] ] ] ] ] Y T ! ! ! ! ! ! U I u 2 1                               ",
"                              7 < < 2 y s I U Y ] ] ] ] ] ] ] ] ] ] ] ] ! ! ! ! ! ! I P s y 1 < 1                               ",
"                              7 < 1 < < 1 y u f I U Y ] ] ] ] ] ] ] ] T U U E I P s y 2 1 < < < 1                               ",
"                              7 2 u y 1 < < < 1 2 y y s P I I U U I I P g u y y 2 1 < < < < 1 < 1                               ",
"                              0 u P g y 1 < < < < < < 1 2 2 2 2 2 2 2 2 2 1 < < < < < < < 1 y 2 1                               ",
"                              0 f U Y I p 1 < < < < < < < < < < < < < < < < < < < < < < 2 y p 2 1                               ",
"                              0 f Y } 6.( g y 2 < < < < < < < < < < < < < < < < < < 2 2 y p p 2 1                               ",
"                              0 g Y ..a.p.| I g u 2 < < < < < < < < < < < < < 1 2 y y p p p p 2 1                               ",
"                              j P Y ..s.s.7.[ Y I g u 2 2 2 2 2 2 2 2 2 2 2 y u u p p p p p p 2 1                               ",
"                              h I ] ..s.s.7.[ ] ^ U P d d d d d d d I I I P P g p p p p p p p 2 1                               ",
"                              j I ] ..s.s.7.[ ] ^ U I P P P P P P P I U U P P g p p p p p p p 2 1                               ",
"                              j U ] ..s.s.7.[ ] ^ U I P P P P P P P P I I P P g f p p p p p p 2 1                               ",
"                              l U ] ..s.s.7.[ ] ^ U I P P P P P P P P P P P P P g p p p p p p 2 <                               ",
"                              l I ] ..s.s.7.[ ] ^ U I P P P P P P P P I P P P g f p p p p p p 2 1                               ",
"                                R ] ..s.s.7.[ ] ^ U I P P P P P P P P P P P g p p p p p p p p 2                                 ",
"                                c ~  .p.s.7.[ ] ^ U I P P P P P P P P P g f p p p p p p p p i 0                                 ",
"                                  Q / 8.a.7.[ ] ^ U I P P P P P P P P P g p p p p p p p p p 2                                   ",
"                                  W ~ | 7.} ] ] ^ U I P P P P P P P P P g p p p p p p p p i 2                                   ",
"                                    *.( ^ T ] ] ^ U I P P P P P P P P P g p p p p p p p p j                                     ",
"                                        ( ~ Y ^ ! U I P P P P g f f g P g p p p p p p p                                         ",
"                                          ~ ( ! ! ! I g g g g f p p f g g p p p p l p                                           ",
"                                              ~ O.( I g f f p p p p p p p p l l p                                               ",
"                                                                                                                                ",
"                                                                                                                                ",
"                                                                                                                                ",
"                                                                                                                                ",
"                                                                                                                                ",
"                                                                                                                                "
};
