/* XPM */
static char *_a83027cb1bb48d58a043f18d501857fDLXk0ACEQuoDJtPF[] = {
/* columns rows colors chars-per-pixel */
"64 64 161 2 ",
"   c None",
".  c #7B6F54",
"X  c #796F5D",
"o  c #786E61",
"O  c #797063",
"+  c #7D7469",
"@  c #942B2A",
"#  c #9C302F",
"$  c #E60705",
"%  c #E20A08",
"&  c #F30705",
"*  c #FE0201",
"=  c #FE0906",
"-  c #FE0D0A",
";  c #E8110E",
":  c #F3100D",
">  c #FE120D",
",  c #FF1C0F",
"<  c #E31512",
"1  c #FE1511",
"2  c #FE1A15",
"3  c #FD1E19",
"4  c #FE2513",
"5  c #FE231C",
"6  c #FE2A1A",
"7  c #EC2C24",
"8  c #FE2620",
"9  c #FE2C24",
"0  c #F52A22",
"q  c #FC3027",
"w  c #FE352B",
"e  c #FE392E",
"r  c #FE3C31",
"t  c #FE4127",
"y  c #FE4C2E",
"u  c #FE552E",
"i  c #FF4236",
"p  c #FE4A32",
"a  c #FE4639",
"s  c #FD4C3D",
"d  c #FE5336",
"f  c #FD4F41",
"g  c #FE5445",
"h  c #FE574B",
"j  c #F75F4F",
"k  c #FE5B4B",
"l  c #FE5E51",
"z  c #FF7B4F",
"x  c #FD6453",
"c  c #FF6B56",
"v  c #FE6559",
"b  c #FE6D5C",
"n  c #FF6F63",
"m  c #FE7463",
"M  c #FA7863",
"N  c #FE7969",
"B  c #FE7E70",
"V  c #B7A368",
"C  c #B7A570",
"Z  c #FF824C",
"A  c #FE884E",
"S  c #FF9858",
"D  c #FFA355",
"F  c #FEA65E",
"G  c #FFAD5C",
"H  c #FE8574",
"J  c #FE8778",
"K  c #FE8A7A",
"L  c #FFA661",
"P  c #FEA969",
"I  c #FDBB66",
"U  c #FFBD6E",
"Y  c #FFBF75",
"T  c #FFC16F",
"R  c #FFD96C",
"E  c #FFC975",
"W  c #FFC17C",
"Q  c #FFCC7B",
"!  c #FFDB75",
"~  c #FFDC7B",
"^  c #FE9383",
"/  c #FF968B",
"(  c #FF998A",
")  c #FE9E94",
"_  c #CCB784",
"`  c #D2BC88",
"'  c #CAB790",
"]  c #C4B49C",
"[  c #CCBA98",
"{  c #C5B492",
"}  c #FEA08E",
"|  c #FEBD85",
" . c #FEA594",
".. c #FEA299",
"X. c #FEAB9E",
"o. c #CBBBA3",
"O. c #CCBCA9",
"+. c #C2B4A1",
"@. c #FEAEA3",
"#. c #FEB3A5",
"$. c #FEB5AA",
"%. c #FEB9AF",
"&. c #FEBDB2",
"*. c #D3C19F",
"=. c #FEC282",
"-. c #FFCC83",
";. c #FECC8B",
":. c #EDD384",
">. c #ECD38E",
",. c #FFDD83",
"<. c #FFD18C",
"1. c #FFDF8B",
"2. c #FFE28E",
"3. c #FFE195",
"4. c #FEE39C",
"5. c #CFC0B1",
"6. c #D5C6B1",
"7. c #D7C8B5",
"8. c #F0D9A1",
"9. c #FFC1B3",
"0. c #FEC5BA",
"q. c #FFC6BB",
"w. c #FEC9BF",
"e. c #FFE4A2",
"r. c #FEE5AC",
"t. c #FEE6B3",
"y. c #FDE7BA",
"u. c #FFE9BB",
"i. c #FFCCC4",
"p. c #FFD1C5",
"a. c #F1DEC5",
"s. c #FFD3CA",
"d. c #FFD6CE",
"f. c #FFD5CC",
"g. c #FED9CE",
"h. c #FFD7D1",
"j. c #FFDED5",
"k. c #FFDED8",
"l. c #FDE9C4",
"z. c #F3E2CC",
"x. c #FDEACC",
"c. c #FEEBD2",
"v. c #FFE2DB",
"b. c #FFE6DF",
"n. c #FEECDA",
"m. c #FFE6E1",
"M. c #FFE9E3",
"N. c #FFE9E4",
"B. c #FFEDEA",
"V. c #FFF2EE",
"C. c #FFF0EB",
"Z. c #FFF3F0",
"A. c #FFF7F4",
"S. c #FFF5F3",
"D. c #FFF9F7",
"F. c #FFFBF9",
"G. c #FFFCFB",
"H. c #FFFDFD",
"J. c white",
"K. c #FFFEFE",
"L. c #FFFEFE",
/* pixels */
"                                                                                                                                ",
"                                                                                                                                ",
"                                                                                                                                ",
"                                                                                                                                ",
"                                                                                                                                ",
"                                                                                                                                ",
"                                                                                                                                ",
"                                                                                                                                ",
"                                                                                                                                ",
"                                                                                                                                ",
"                                                                                                                                ",
"                                                                                                                                ",
"                                                                                                                                ",
"                                                                                                                                ",
"                                                                                                                                ",
"                                                            - - - -                                                             ",
"                                                    - 1 2 5 8 8 8 5 3 2 > -                                                     ",
"                                                = 1 5 e s x m N m b k a q 3 ;                                                   ",
"                                            * - 2 w k J $.d.M.B.B.m.s.@.N s 7 # @                                               ",
"                                          * = 3 i m &.V.J.J.J.J.J.J.J.J.B.@.j 7 < % $                                           ",
"                                        * * 2 r N s.J.J.J.J.J.J.J.J.J.J.J.G.q.x 0 : & &                                         ",
"                                      * * - 9 x w.J.J.J.J.J.J.J.J.J.J.J.J.J.J.$.s 3 = * *                                       ",
"                                    * * * 2 a ( A.J.J.J.J.J.J.J.J.J.J.J.J.J.J.V.B 9 - * * *                                     ",
"                                  1 - = = 5 k q.J.J.J.J.J.J.J.J.J.J.J.J.J.J.J.J.@.i 1 = = > 1                                   ",
"                                w e 5 > - 9 b j.J.J.J.J.J.J.J.J.J.J.J.J.J.J.J.J.i.g 2 - 1 9 r q                                 ",
"                                b ..a 2 > 9 m b.J.J.J.J.J.J.J.J.J.J.J.J.J.J.J.J.h.h 3 > 5 h ..k                                 ",
"                              x $.B.n 8 1 9 m v.J.J.J.J.J.J.J.J.J.J.J.J.J.J.J.J.s.g 5 2 e J V.) f                               ",
"                              H M.J./ q 1 8 x p.J.J.J.J.J.J.J.J.J.J.J.J.J.J.J.J.&.a 2 3 a #.J.k.b                               ",
"                            x #.J.J.@.e 1 3 f X.G.J.J.J.J.J.J.J.J.J.J.J.J.J.J.D.^ w 1 3 g q.J.F.( s                             ",
"                            M g.J.J.$.r 1 1 e N v.J.J.J.J.J.J.J.J.J.J.J.J.J.J.d.x 5 > 5 g i.J.J.q.k                             ",
"                            K C.J.J.@.r > - 5 f } V.J.J.J.J.J.J.J.J.J.J.J.J.B.J e 1 - 3 g q.J.J.m.m                             ",
"                             .F.J.J.( q - * > 9 k  .B.J.J.J.J.J.J.J.J.J.J.N.^ a 3 = = 2 s #.J.J.A.J                             ",
"                          x #.J.J.Z.N 8 = * = > 9 g ^ s.S.J.J.J.J.J.J.Z.w.H a 5 - * * 1 r ^ D.J.J.) s                           ",
"                          c 9.J.J.i.g 3 = * * * > 8 i x ^ #.i.d.d.w.@.J k w 3 - * * * - 9 b j.J.J.X.g                           ",
"                          b q.J.S.K w > * * * * * - 2 9 r s k l k g a w 5 1 = * * * * = 2 s  .F.J.#.g                           ",
"                          c 9.J.%.f 3 = * * * * * * = - 1 2 5 5 5 3 2 > = * * * * * * * - 9 x i.J.@.g                           ",
"                          g X.i.x 8 > * * * * * * * * * * * = = = * * * * * * * * * * * = 2 r m h./ i                           ",
"                          r x l 9 1 = * * * * * * * * * * * * * * * * * * * * * * * * * * = 3 r v h                             ",
"                            8 5 1 = * * * * * * * * * * - 2 4 4 4 4 , = * * * * * * * * * * - 2 5 5                             ",
"                            - - * * * * * * * * * 4 u A P W -.Q Q E U F Z u 4 * * * * * * * * = - -                             ",
"                            = * * * * * * * * 6 Z T ,.:.C 8.t.t.r.e.>.V :.,.Y z 5 * * * * * * * *                               ",
"                              * * * * * * * d =.4.4.4._ . *.x.c.x.l.' . ` e.e.e.| p * * * * * * *                               ",
"                                * * * * * y <.r.t.t.u.{ X o.c.c.c.c.] X [ u.y.y.r.;.t * * * * *                                 ",
"                                  * * * = L 4.y.l.x.x.] o O.c.c.c.c.+.O o.x.x.x.y.4.S = * * *                                   ",
"                                    * * > I 3.y.x.c.c.O.+ 7.n.n.n.n.5.+ 6.c.c.c.y.3.G > * *                                     ",
"                                      * > G 2.t.x.c.c.a.o.z.n.n.n.n.z.O.z.c.c.x.t.2.D =                                         ",
"                                          I ,.4.t.l.l.l.l.x.c.c.n.c.c.x.x.x.l.y.e.,.I                                           ",
"                                            ! 1.3.e.r.r.t.y.l.x.x.x.l.u.y.t.r.4.1.~                                             ",
"                                              ! ~ ,.1.3.4.e.r.r.t.t.r.r.e.4.1.,.~                                               ",
"                                                R R ! ~ ,.1.1.3.3.3.3.3.1.,.! !                                                 ",
"                                                    R R ! ! ! ! ~ ,.,.,.~ !                                                     ",
"                                                                                                                                ",
"                                                                                                                                ",
"                                                                                                                                ",
"                                                                                                                                ",
"                                                                                                                                ",
"                                                                                                                                ",
"                                                                                                                                ",
"                                                                                                                                ",
"                                                                                                                                ",
"                                                                                                                                ",
"                                                                                                                                ",
"                                                                                                                                ",
"                                                                                                                                "
};
