/* XPM */
static char *b894eb3108bb4dd2dfe62d1f1807438fSEwAvA5PyfCH6bP7[] = {
/* columns rows colors chars-per-pixel */
"64 64 251 2 ",
"   c None",
".  c #050200",
"X  c #180403",
"o  c #1C1703",
"O  c #1D0C1C",
"+  c #280701",
"@  c #350501",
"#  c #291704",
"$  c #361807",
"%  c #281A15",
"&  c #381A12",
"*  c #210E10",
"=  c #392518",
"-  c #2F270D",
";  c #392B27",
":  c #373637",
">  c #322C2E",
",  c #20162D",
"<  c #560500",
"1  c #451907",
"2  c #5B1803",
"3  c #471A14",
"4  c #4C0A05",
"5  c #770A04",
"6  c #681703",
"7  c #781A0C",
"8  c #680C05",
"9  c #482707",
"0  c #582A07",
"q  c #573903",
"w  c #482919",
"e  c #562A15",
"r  c #5A381A",
"t  c #483510",
"y  c #6A2717",
"u  c #693718",
"i  c #773C1A",
"p  c #6F2E0C",
"a  c #463729",
"s  c #5A3927",
"d  c #4A3C33",
"f  c #512C2C",
"g  c #772927",
"h  c #653B26",
"j  c #74332F",
"k  c #701E2C",
"l  c #514417",
"z  c #7D421C",
"x  c #6D4A11",
"c  c #58432B",
"v  c #5A4738",
"b  c #4D4A2C",
"n  c #6C442A",
"m  c #684127",
"M  c #744324",
"N  c #7B4828",
"B  c #674936",
"V  c #774B34",
"C  c #7A5239",
"Z  c #6A562A",
"A  c #736839",
"S  c #78661C",
"D  c #0C1255",
"F  c #251C4C",
"G  c #1D274E",
"H  c #383357",
"J  c #312B50",
"K  c #0E1872",
"L  c #1A2871",
"P  c #2C327C",
"I  c #58334F",
"U  c #443263",
"Y  c #5F2355",
"T  c #364B5D",
"R  c #464647",
"E  c #595653",
"W  c #554B50",
"Q  c #6B4B49",
"!  c #695946",
"~  c #75534B",
"^  c #746B4E",
"/  c #51516E",
"(  c #726F6E",
")  c #606065",
"_  c #951601",
"`  c #851C15",
"'  c #8A1001",
"]  c #B01604",
"[  c #932905",
"{  c #862815",
"}  c #9C3819",
"|  c #8D2F0F",
" . c #A62503",
".. c #B82A07",
"X. c #B92B13",
"o. c #A83517",
"O. c #BA3818",
"+. c #AC3010",
"@. c #992D25",
"#. c #883B28",
"$. c #983726",
"%. c #8B3931",
"&. c #A43825",
"*. c #B83727",
"=. c #A73835",
"-. c #B8312F",
";. c #CB2A05",
":. c #D82807",
">. c #C63805",
",. c #D8350B",
"<. c #C72A1A",
"1. c #DC2A16",
"2. c #CA3817",
"3. c #D83518",
"4. c #E62809",
"5. c #E7320D",
"6. c #E82D13",
"7. c #E5321A",
"8. c #F63414",
"9. c #CB3B27",
"0. c #D53627",
"q. c #CD352C",
"w. c #D32A12",
"e. c #87481D",
"r. c #B5421B",
"t. c #844926",
"y. c #874935",
"u. c #925233",
"i. c #AD4D31",
"p. c #8C7030",
"a. c #D44614",
"s. c #CB472F",
"d. c #E74537",
"f. c #8F374C",
"g. c #B4344F",
"h. c #9B2869",
"j. c #914F49",
"k. c #B14E4E",
"l. c #876B4A",
"z. c #937252",
"x. c #AE7150",
"c. c #8A796E",
"v. c #AE6D68",
"b. c #804973",
"n. c #E35342",
"m. c #C66754",
"M. c #C87857",
"N. c #ED6F4D",
"B. c #D47873",
"V. c #CF5047",
"C. c #7E8C4B",
"Z. c #9D873C",
"A. c #988750",
"S. c #B59858",
"D. c #B08B54",
"F. c #9A8577",
"G. c #959778",
"H. c #8F896C",
"J. c #B89969",
"K. c #AE9277",
"L. c #BAB06B",
"P. c #CE9472",
"I. c #F19072",
"U. c #C8A76B",
"Y. c #CAA975",
"T. c #D7AA7A",
"R. c #DABC7A",
"E. c #D1B071",
"W. c #E4BA6D",
"Q. c #E7BB76",
"!. c #EBB574",
"~. c #C0A45C",
"^. c #A9C174",
"/. c #D2C777",
"(. c #E8C77D",
"). c #F5C56C",
"_. c #353799",
"`. c #293592",
"'. c #2B38A5",
"]. c #3737BA",
"[. c #3630B2",
"{. c #1B26A1",
"}. c #493097",
"|. c #5033AE",
" X c #7137A8",
".X c #783A86",
"XX c #304493",
"oX c #2D41B5",
"OX c #4F5393",
"+X c #6A4F8D",
"@X c #6A7193",
"#X c #1832D6",
"$X c #2838C5",
"%X c #3737C5",
"&X c #263AD7",
"*X c #363BD9",
"=X c #2E2CD3",
"-X c #1D37E9",
";X c #113AFA",
":X c #2536E5",
">X c #2636F6",
",X c #3237F2",
"<X c #4033CB",
"1X c #2942CE",
"2X c #1442FA",
"3X c #2A42EE",
"4X c #943580",
"5X c #837E81",
"6X c #93918F",
"7X c #A69791",
"8X c #B2AC8F",
"9X c #969AA1",
"0X c #AF9DA6",
"qX c #A4ACA6",
"wX c #B7B7B7",
"eX c #B5B1AC",
"rX c #96A49E",
"tX c #D29882",
"yX c #D8B887",
"uX c #D7BB96",
"iX c #CDB089",
"pX c #E4AC87",
"aX c #E7BA87",
"sX c #EFAE92",
"dX c #D1B6B3",
"fX c #FFADAC",
"gX c #FF9999",
"hX c #B3CCA6",
"jX c #DBC488",
"kX c #D2C596",
"lX c #E8C387",
"zX c #E7C795",
"xX c #F9C69A",
"cX c #F3CD8C",
"vX c #D7C5B8",
"bX c #FFC9B8",
"nX c #F2D0AA",
"mX c #B2B6CB",
"MX c #CDBFD0",
"NX c #B8C7CF",
"BX c #C7CACA",
"VX c #C4C7D7",
"CX c #D5C9D6",
"ZX c #CAD4D6",
"AX c #D7D5D6",
"SX c #D3CECB",
"DX c #FCC8C9",
"FX c #ECD4CC",
"GX c #D1D4E6",
"HX c #F0D6E1",
"JX c #F7E0D7",
/* pixels */
"                                                                                                                                ",
"                                                                                                                                ",
"                                                                                                                                ",
"                                                            j.C h y.u.                                                          ",
"                                                      #.7 { | ' { { 6 < 7 $.                                                    ",
"                                                  y.i #.} *.s.9.s.X.*.V.@.< 7                                                   ",
"                                                y.j u.P.gXI.m.&.<.0.0.<.q.*.@.<                                                 ",
"                                                g v.fXDXbXDXbXI.9.7.1.1.1.0.*.&.2                                               ",
"                                              g k.fXgXB.DXtXfXbXN.;.,.7.:.3.0.*.$.<                                             ",
"                                            k.%.m.DXgXk.k.j.sXDXI.a.,.,.:.6.1.2.*.@.7                                           ",
"                                            %.#.B.fXm.x.x.x.P.bXI.a.;.,.5.6.4.1.0.*.` 7                                         ",
"                                f.f.j k g #.7 7 @.m.m.bXbXP.J.bXN.,.;.5.5.4.4.6.1.<.*.8 7                                       ",
"                            I f f.=.=.-.-.q.n.q.<.X.' =.P.sXnXbXn.3.,.5.4.4.4.8.:.7.9.$.<                                       ",
"                          X X @ < 5 ` -.*.X.0.] <.d.0.*.&.$.u.i.X.;.,.,.,.,.:.5.4.7.<.s.y y                                     ",
"                          . X & + @ @ @ < 6 | r.2.2.;.3.3.3.3.<.] ] ....>.,.;.:.8.4.1.q.=.8                                     ",
"                            X . X * + X @ @ @ p [ +...3.;.1.6.1.,.>. ._  .>.>.,.5.7.7.<.*.7 {                                   ",
"                              . . X * X X + + tXP.M.i.} o.O.9.2.;.,.>.a. . . .2.2.2.2.<.s.&.5                                   ",
"                                  . . X = w B uXr x.T.T.M.} [ r.a.>.>.O.o.o.| ' _ O.2.a.O.*.' @.i.                              ",
"                                      v G.K.A.l.# A.zXaXU.e.4 | [ [ } | $.{ { 8 5 ' _ O.O.s.o.&.p e g                           ",
"                                    b ^ H.l.Z l # A /.jXY.q + x.sXP.x.t.t.u.x.i.{ [ 5 [ +.o.r.} i.y.e g                         ",
"                                  r H.nXzXyXyXU.p.S A.R./.q X P.sXsXpXxXxXxXx.i 6 i 6 6 t.#.| 2 { k.%.e                         ",
"                                  B uXnXU.aXcXQ.(.S.Z.S.jXA.x J.sXsXpXxXU.D.N 0 u u u j.pXiXY.D.p 6 y.4                         ",
"                                  l.iXaXaXxX!.!.W.cX(.U.yXjXuXzXpXpXlXaXp.q 9 q m 9 r K.iXuXyXzXtXy y 2                         ",
"                                  l.uXaXT.aXQ.Q.W.(.R.jXzXuXiXK.e M U.lX~.x q l r r C tXl.Y./.R.pXy.1                           ",
"                                  l kXiXyXzXQ.lXR.jXjXiXY.H.v # # - A.jXE.p.9 q q u.yXD.S.(.W.W.yXz.r                           ",
"                                    ^ 8XkXzXyXE.jXS.Z t $ $ $ # = X A kXjXD.x S J.T.R.x.E.Q.).W.nX! c                           ",
"                                    a B l.iXJ.z.r 9 # $ $ $ 3 w + # A.jXlXQ.E.lXaXxXyXS.D.D.W.R.8X;                             ",
"                                        9 $ $ $ 9 1 1 w w 3 3 1 9 D.zXT.T.aXaXU.9 l.iXnXY.iXzXuX^ l                             ",
"                                          + w $ 9 3 1 1 1 3 3 3 0 aXaXaXxXpXx.1 9 t Z A G.7X^ c                                 ",
"                                          + + w $ = = & & 3 1 $ p.zXiXpXtXN 0 $ 9 l b X ! ^                                     ",
"                                            X X % % % - a c B ! iXkXF.~ f + + f t - o o                                         ",
"                                                o o # a c e e h a % , , f j.f @ 1 1 +                                           ",
"                                                      j %.{ o.$.Q U |.}.f.k.@.` &.i.6 2                                         ",
"                                                    f.g &.r.q.g.b.}.%X|.g.0.&.' s...+.<                                         ",
"                                                A.l 3 j.i.o.g.h.+X_.[. X-.:.X.' 2...s.` 4                                       ",
"                                          : b l G.c.~ V e.i.f.h.}.].[. X-.;.O.' X.9.9.i.4 e                                     ",
"                                        6XE G.H.mXH U I q z k Y [.*X<X Xg.9.r.5 +.O.*.` e X Q                                   ",
"                                      C.( ( qX@XOX_.}.U J.lXz.Y |.*X=X|.4Xk.%.6 { $.k.v.dX0X0X( (                               ",
"                                    G.G.wXNX@XP %X{.].OXkX/.L.W _.*X:X=X X.XI ~ v.dXDXHXwXBXSXHX( E                             ",
"                                    ( rXZXmXL '.=X,X$X`.hX^.8XH `.&X3X:X<X}.U 7XvXSXMXGXZXBXCX0X) :                             ",
"                                    ( 6XAXmXXX[.,X>X$X'.T T P `.$X#X3X-X*X{.H ( wXZXVXGXNXNXCX0X> E                             ",
"                                      / 9XmXOX].,X>X1XoXXX'.].&X3X:X-X#X$XK / qXZXVXGXmXZXBXeXAXc.:                             ",
"                                      / R W D '.=X:X1X1X1X$X:X>X;X2X-X$X_.F 5XFXBXmXCX( H.qXR wXBX: R                           ",
"                                      / 6XwX/ _.*X:X&X&X&X:X>X;X;X;X&X].`.H 0XvXAXGXSXQ b qX% rXBX6X>                           ",
"                                        ! AXmXD 1X*X:X:X-X>X>X>X2X;X&X].P +XJXvXBXCXdXc.E eX) qXBXqX>                           ",
"                                        : ( mXOXK {.$X3X:X:X>X>X2X#X*X%X`.@XSX7XCXVXFXvXdXAXBXAXAX( :                           ",
"                                          W H / G L `.'.$X&X:X-X1X&X3X=X{.`./ E VXNXBXAXGXVXAXdXeXW                             ",
"                                              ) ) E G D L _.].].'.'.%X[.'.K H 6XVXGXNXZXNXVXAXeXE R                             ",
"                                            s h h s w a O O , F H F F F F , a Q eXwXwXeX9X9X) R                                 ",
"                                          e C u t.t.M V s f = ; * % ; Q Q B s B & = ; % R R                                     ",
"                                          9 V M M N M V h s w w & = f B C B h s s w =                                           ",
"                                        e s n N i N t.M u r h n n h h r e u u e e w w                                           ",
"                                        w c m V M N N u u u N y.M N N i u u u u u n s #                                         ",
"                                          $ B B V M i 0 u z t.i i t.t.t.z i z N y.u.s $ $                                       ",
"                                          = v v B n h 0 z t.u.i t.t.e.e.e.i z t.u n n B X                                       ",
"                                            = d a s s 1 e u t.z t.i z t.t.z z N C m B v +                                       ",
"                                            > ( ( c.c.z.e V u t.t.N M M N N M n n C v % &                                       ",
"                                              : > d d w $ 1 r n m n n h e 9 9 w w w % %                                         ",
"                                                          w B B B B B ~ z.F.F.c.F.c.;                                           ",
"                                                          # d c.F.6XF.c.! v d d ; ; *                                           ",
"                                                              a d d d v Q v                                                     ",
"                                                                                                                                ",
"                                                                                                                                ",
"                                                                                                                                "
};
